<?xml version="1.0" encoding="UTF-8"?>
<svg version="1.1" xmlns="http://www.w3.org/2000/svg" width="331" height="364">
<path d="M0 0 C1.65032227 0.41668945 1.65032227 0.41668945 3.33398438 0.84179688 C11.41259603 2.91259603 11.41259603 2.91259603 12.5625 4.0625 C12.72075258 6.06032126 12.81369171 8.06338834 12.87890625 10.06640625 C12.94174805 11.88881836 12.94174805 11.88881836 13.00585938 13.74804688 C13.04517578 15.02744141 13.08449219 16.30683594 13.125 17.625 C13.16818359 18.90826172 13.21136719 20.19152344 13.25585938 21.51367188 C13.36234719 24.69647445 13.46296421 27.87947243 13.5625 31.0625 C21.8125 33.0425 30.0625 35.0225 38.5625 37.0625 C38.8925 28.8125 39.2225 20.5625 39.5625 12.0625 C44.30057146 12.65475893 48.58072903 13.19173174 53.15625 14.25390625 C54.02958984 14.45443604 54.90292969 14.65496582 55.80273438 14.86157227 C56.87845703 15.11350342 57.95417969 15.36543457 59.0625 15.625 C62.5275 16.429375 65.9925 17.23375 69.5625 18.0625 C69.5625 26.9725 69.5625 35.8825 69.5625 45.0625 C75.87341678 46.29321019 75.87341678 46.29321019 82.18603516 47.51513672 C83.38172119 47.75127686 83.38172119 47.75127686 84.6015625 47.9921875 C85.40803223 48.14929199 86.21450195 48.30639648 87.04541016 48.46826172 C89.93381635 49.15016091 92.74699131 50.1239971 95.5625 51.0625 C95.5625 42.4825 95.5625 33.9025 95.5625 25.0625 C105.69889433 26.18876604 105.69889433 26.18876604 110 27.21875 C110.91394531 27.43660156 111.82789063 27.65445313 112.76953125 27.87890625 C114.15205078 28.21728516 114.15205078 28.21728516 115.5625 28.5625 C116.51511719 28.78808594 117.46773438 29.01367188 118.44921875 29.24609375 C125.42874765 30.92874765 125.42874765 30.92874765 126.5625 32.0625 C126.67731777 33.90190563 126.72215081 35.74571906 126.73950195 37.58862305 C126.75233719 38.77042648 126.76517242 39.95222992 126.77839661 41.16984558 C126.78947701 43.1025103 126.78947701 43.1025103 126.80078125 45.07421875 C126.808853 46.39033646 126.81692474 47.70645416 126.82524109 49.06245422 C126.84028614 51.8560066 126.85011393 54.6495334 126.85766602 57.44311523 C126.86870252 61.01317271 126.90306196 64.58260202 126.94283772 68.15243816 C126.96905111 70.90205504 126.97736223 73.65152383 126.98094749 76.40125465 C126.98816188 78.35440076 127.01458781 80.30744549 127.04133606 82.26042175 C127.01494908 93.06177972 127.01494908 93.06177972 122.5625 98.0625 C121.9900011 98.58139612 121.41750219 99.10029224 120.82765484 99.63491249 C113.57688917 107.13097936 114.57548943 116.12323687 114.65673828 125.85766602 C114.64724338 127.76718782 114.63477436 129.67669678 114.61956787 131.58618164 C114.58774701 136.75369823 114.59998956 141.92023292 114.62222147 147.08776593 C114.6399883 152.50392562 114.62349591 157.92000326 114.61251831 163.33616638 C114.599797 172.42926068 114.61653082 181.52195649 114.64990234 190.61499023 C114.68800735 201.11891994 114.67564674 211.62189871 114.63711751 222.12580544 C114.60532547 231.1554192 114.60088139 240.18474714 114.61918819 249.2143988 C114.63008573 254.60260504 114.63159971 259.99036463 114.60843277 265.37854195 C114.58817245 270.44414547 114.60230694 275.50852577 114.64269257 280.5739975 C114.65192742 282.42990274 114.64932551 284.2859114 114.63385391 286.14177513 C114.18078254 297.30928484 114.18078254 297.30928484 118.93161011 306.97911072 C120.12970184 308.02110862 121.3396055 309.04972536 122.5625 310.0625 C129.58816723 319.4300563 125.5625 333.35305462 125.5625 345.0625 C25.5725 345.0625 -74.4175 345.0625 -177.4375 345.0625 C-177.4375 333.8425 -177.4375 322.6225 -177.4375 311.0625 C-174.4675 308.0925 -171.4975 305.1225 -168.4375 302.0625 C-166.91411733 299.01573466 -167.27482554 295.83699409 -167.26341248 292.49305725 C-167.25691352 291.70281691 -167.25041457 290.91257658 -167.24371868 290.09838957 C-167.22324851 287.43547629 -167.21008239 284.77257836 -167.19702148 282.10961914 C-167.18421359 280.20601182 -167.17107819 278.30240668 -167.15763855 276.39880371 C-167.04158966 258.99738073 -166.98507516 241.59538054 -166.94087124 224.19364262 C-166.90765166 211.33181938 -166.84814466 198.47070189 -166.75336021 185.60918146 C-166.68896668 176.56531683 -166.65532445 167.52164412 -166.64412171 158.47755903 C-166.63656969 153.07720666 -166.61546073 147.67770607 -166.56109428 142.27760506 C-166.51048988 137.19083419 -166.49810076 132.10536209 -166.51434517 127.01837921 C-166.51374361 125.15721161 -166.49957071 123.29598811 -166.47039795 121.43504906 C-166.31824407 111.18834757 -166.51072307 104.13325412 -173.52467442 95.99196529 C-174.82605322 94.67926577 -176.13044858 93.36955142 -177.4375 92.0625 C-177.67800903 89.4682312 -177.67800903 89.4682312 -177.66455078 86.14404297 C-177.66439972 84.90290741 -177.66424866 83.66177185 -177.66409302 82.38302612 C-177.653879 81.0235783 -177.643447 79.6641321 -177.6328125 78.3046875 C-177.62908284 76.91749271 -177.62623565 75.53029529 -177.62423706 74.14309692 C-177.61659684 70.49009949 -177.59694516 66.83726083 -177.5748291 63.18432617 C-177.55437896 59.45754138 -177.54523713 55.73073096 -177.53515625 52.00390625 C-177.51369951 44.69003175 -177.47955903 37.37628811 -177.4375 30.0625 C-173.25211028 29.21832741 -169.0638911 28.38910784 -164.875 27.5625 C-163.69357422 27.32402344 -162.51214844 27.08554687 -161.29492188 26.83984375 C-146.63270246 23.96489877 -146.63270246 23.96489877 -142.4375 26.0625 C-142.4375 34.6425 -142.4375 43.2225 -142.4375 52.0625 C-137.57543863 50.79810821 -137.57543863 50.79810821 -132.71704102 49.51977539 C-127.5246091 48.19582197 -122.88035867 47.66726207 -117.4375 47.0625 C-117.4375 37.1625 -117.4375 27.2625 -117.4375 17.0625 C-113.291875 16.216875 -109.14625 15.37125 -104.875 14.5 C-103.58134521 14.22986084 -102.28769043 13.95972168 -100.95483398 13.68139648 C-92.43861172 11.99559816 -87.58402037 11.80389185 -79.4375 15.0625 C-79.4375 22.6525 -79.4375 30.2425 -79.4375 38.0625 C-77.76300781 37.7015625 -76.08851562 37.340625 -74.36328125 36.96875 C-72.15891054 36.49973496 -69.95448032 36.03099955 -67.75 35.5625 C-66.64720703 35.32402344 -65.54441406 35.08554687 -64.40820312 34.83984375 C-62.8081543 34.50146484 -62.8081543 34.50146484 -61.17578125 34.15625 C-60.19649658 33.94677734 -59.21721191 33.73730469 -58.20825195 33.52148438 C-55.4375 33.0625 -55.4375 33.0625 -50.4375 33.0625 C-50.4375 23.1625 -50.4375 13.2625 -50.4375 3.0625 C-43.26 1.5775 -43.26 1.5775 -35.9375 0.0625 C-33.69743164 -0.40736328 -33.69743164 -0.40736328 -31.41210938 -0.88671875 C-19.70487947 -3.26720982 -11.56612325 -3.03567319 0 0 Z M-29.75854492 59.97094727 C-30.77463333 60.17428177 -31.79072174 60.37761627 -32.83760071 60.58711243 C-36.19902905 61.26139226 -39.55845274 61.94516777 -42.91796875 62.62890625 C-45.2878235 63.10600416 -47.65780581 63.58246883 -50.02790833 64.05833435 C-56.29032898 65.31730009 -62.55113105 66.58413703 -68.81158447 67.85284424 C-78.70313833 69.85572597 -88.59735227 71.8454621 -98.49097061 73.83811569 C-102.08581931 74.56244706 -105.68047778 75.28771676 -109.27511597 76.01309204 C-127.97896652 79.78466305 -146.69898644 83.46723637 -165.4375 87.0625 C-165.78319971 90.16640785 -165.78319971 90.16640785 -163.50789738 92.07882404 C-162.27000037 93.2951088 -162.27000037 93.2951088 -161.00709534 94.53596497 C-154.41218159 102.45082166 -155.19390053 110.58788271 -155.32397461 120.48706055 C-155.31664075 122.43941541 -155.30535382 124.39175879 -155.29043579 126.34407043 C-155.26125191 131.61653046 -155.28703341 136.88742984 -155.32302547 142.15979362 C-155.35124846 147.67982242 -155.32845199 153.19964067 -155.31117249 158.71968079 C-155.28618853 169.16016455 -155.30678665 179.60003588 -155.34394604 190.04046327 C-155.3840361 201.93172475 -155.37303072 213.82276946 -155.35782993 225.71406877 C-155.32771533 250.1637259 -155.36145288 274.61295879 -155.4375 299.0625 C-152.1375 299.0625 -148.8375 299.0625 -145.4375 299.0625 C-145.43163376 297.54597336 -145.42576752 296.02944672 -145.41972351 294.46696472 C-145.36242645 280.15146972 -145.28980313 265.83614274 -145.20178509 251.52080822 C-145.15692719 244.16175461 -145.11748983 236.80274831 -145.09106445 229.44360352 C-145.06800292 223.02515434 -145.03451488 216.60685615 -144.98879844 210.18852693 C-144.96497538 206.793872 -144.94617551 203.39936559 -144.93988609 200.00462914 C-144.93021553 196.20362732 -144.90211917 192.40316328 -144.86987305 188.60229492 C-144.87202568 186.93640572 -144.87202568 186.93640572 -144.8742218 185.23686218 C-144.76033327 175.69876623 -142.8629395 167.15414168 -138.5 158.625 C-138.01660156 157.65691406 -137.53320312 156.68882812 -137.03515625 155.69140625 C-135.43095929 153.05173742 -133.62803377 151.21518438 -131.4375 149.0625 C-131.4375 148.4025 -131.4375 147.7425 -131.4375 147.0625 C-130.633125 146.69125 -130.633125 146.69125 -129.8125 146.3125 C-127.25365876 145.07904024 -127.25365876 145.07904024 -124.75 142.75 C-121.21149025 140.94736296 -120.72701743 140.81472862 -117.125 141.8125 C-107.43314593 145.8358411 -102.49306728 152.83931478 -97.9453125 162.01171875 C-94.10533592 171.42053041 -92.99132673 181.20744959 -93.00512695 191.27856445 C-92.98983948 192.9931636 -92.98983948 192.9931636 -92.97424316 194.74240112 C-92.94437229 198.47024603 -92.93488695 202.19783293 -92.92578125 205.92578125 C-92.90891537 208.53037859 -92.89076259 211.13496788 -92.87138367 213.73954773 C-92.82797377 219.86250881 -92.79927118 225.9854438 -92.77606028 232.10851115 C-92.74887048 239.08820097 -92.70496847 246.0677558 -92.65977156 253.04734862 C-92.56729147 267.38565621 -92.49544446 281.72401327 -92.4375 296.0625 C-89.7975 295.7325 -87.1575 295.4025 -84.4375 295.0625 C-84.43511165 294.40873005 -84.43272329 293.7549601 -84.43026257 293.08137894 C-84.37097112 277.12937659 -84.29533145 261.17754653 -84.20178509 245.22571182 C-84.15693454 237.51132835 -84.11749552 229.79698993 -84.09106445 222.08251953 C-84.06799693 215.35386467 -84.03450233 208.62535369 -83.98879844 201.89681315 C-83.9649834 198.33836576 -83.94617831 194.78005983 -83.93988609 191.22153473 C-83.93264317 187.23635297 -83.90210758 183.25165966 -83.86987305 179.26660156 C-83.87202568 177.52194862 -83.87202568 177.52194862 -83.8742218 175.74205017 C-83.70657471 161.00829472 -79.6161893 146.66962952 -69.29296875 135.75390625 C-65.41168731 132.2158118 -61.65115971 129.58059057 -56.5 128.375 C-47.99096783 130.2851909 -41.36959686 137.18125569 -36.4375 144.0625 C-29.6273926 156.35180549 -28.3034775 168.39390909 -28.23217773 182.16992188 C-28.22227814 183.3610257 -28.21237854 184.55212952 -28.20217896 185.77932739 C-28.17613205 189.02253948 -28.15421266 192.26574701 -28.13417697 195.50900078 C-28.1121935 198.90694601 -28.08486574 202.3048483 -28.05812073 205.70275879 C-28.00835994 212.12692525 -27.96336004 218.55111576 -27.92009836 224.97532892 C-27.87058328 232.29342048 -27.81571843 239.61146893 -27.76041877 246.9295187 C-27.64685404 261.97380577 -27.54014999 277.01813421 -27.4375 292.0625 C-24.1375 291.7325 -20.8375 291.4025 -17.4375 291.0625 C-17.4375 218.7925 -17.4375 146.5225 -17.4375 72.0625 C-10.5075 74.0425 -3.5775 76.0225 3.5625 78.0625 C7.35743328 79.09729398 11.14992145 80.12389669 14.95507812 81.11791992 C15.91571671 81.37066681 16.87635529 81.6234137 17.86610413 81.88381958 C26.48785416 84.14692786 35.11860651 86.37563973 43.75218964 88.59313488 C49.51982931 90.07471056 55.28387684 91.56806887 61.04150391 93.08813477 C66.66781672 94.57326597 72.3008073 96.02977651 77.93980408 97.46596718 C80.0763005 98.01529583 82.21020936 98.57479294 84.34132385 99.14464378 C87.3013472 99.93411001 90.26849934 100.68646328 93.24023438 101.43041992 C94.11498917 101.67273849 94.98974396 101.91505707 95.89100647 102.16471863 C98.20505813 102.72158683 100.18361746 103.13976642 102.5625 103.0625 C105.58331621 101.03796377 105.58331621 101.03796377 107.5625 98.0625 C108.08457031 97.39605469 108.60664063 96.72960937 109.14453125 96.04296875 C109.75361328 95.15544922 109.75361328 95.15544922 110.375 94.25 C111.4578125 92.6721875 111.4578125 92.6721875 112.5625 91.0625 C111.66018143 90.82605774 110.75786285 90.58961548 109.82820129 90.3460083 C101.11293957 88.06213465 92.39796416 85.77717114 83.68322372 83.49130917 C79.07161521 82.28174776 74.45989553 81.07261338 69.84793091 79.8644104 C33.59410265 70.36659488 33.59410265 70.36659488 17.4765625 65.99609375 C15.87874184 65.56398087 15.87874184 65.56398087 14.24864197 65.12313843 C9.53670983 63.8481061 4.82743152 62.56460253 0.12231445 61.26464844 C-1.49258537 60.82583899 -3.10756929 60.38733892 -4.72265625 59.94921875 C-5.76400223 59.65548622 -5.76400223 59.65548622 -6.8263855 59.3558197 C-14.83929173 57.20409829 -21.80879082 58.33609834 -29.75854492 59.97094727 Z M18 136.375 C17.02933594 136.98988281 16.05867187 137.60476562 15.05859375 138.23828125 C12.36315475 139.9883411 12.36315475 139.9883411 10.5625 143.0625 C11.05878906 143.54976562 11.55507812 144.03703125 12.06640625 144.5390625 C24.62218608 157.64281754 29.01927608 173.46974275 28.99487305 191.27856445 C29.0050647 192.42163055 29.01525635 193.56469666 29.02575684 194.74240112 C29.05562771 198.47024603 29.06511305 202.19783293 29.07421875 205.92578125 C29.09108463 208.53037859 29.10923741 211.13496788 29.12861633 213.73954773 C29.17202623 219.86250881 29.20072882 225.9854438 29.22393972 232.10851115 C29.25112952 239.08820097 29.29503153 246.0677558 29.34022844 253.04734862 C29.43270855 267.38565848 29.50396285 281.724014 29.5625 296.0625 C34.5125 296.3925 39.4625 296.7225 44.5625 297.0625 C44.63215301 280.59790858 44.68558888 264.13337859 44.71793652 247.66867542 C44.73335993 240.02263666 44.75436207 232.37669153 44.78881836 224.73071289 C44.8188602 218.06109747 44.83810784 211.3915499 44.84476548 204.72186869 C44.84865291 201.19518321 44.85769252 197.66869174 44.87969017 194.14206886 C44.90413333 190.19078754 44.90446059 186.23969046 44.90307617 182.28833008 C44.913862 181.13817413 44.92464783 179.98801819 44.9357605 178.80300903 C44.87221111 161.93122907 39.78912016 147.11178218 28.359375 134.5390625 C24.49531585 131.3638139 21.62058389 134.04644871 18 136.375 Z M73.375 151.5625 C71.74498047 152.53703125 71.74498047 152.53703125 70.08203125 153.53125 C69.25058594 154.0365625 68.41914063 154.541875 67.5625 155.0625 C67.92601562 155.52398437 68.28953125 155.98546875 68.6640625 156.4609375 C82.67099045 174.63402864 84.16429972 189.88276521 84.171875 212.26953125 C84.18687404 214.80686998 84.20360477 217.34419901 84.22198486 219.8815155 C84.26104683 225.84513208 84.28282667 231.80864821 84.29595876 237.77236336 C84.31191364 244.57069733 84.35036407 251.3688486 84.39055204 258.16707575 C84.47261108 272.13216009 84.52611679 286.0972286 84.5625 300.0625 C89.1825 300.3925 93.8025 300.7225 98.5625 301.0625 C98.63217476 285.64099466 98.68559993 270.21951255 98.71793652 254.79788685 C98.73335516 247.63611784 98.75434796 240.47444889 98.78881836 233.31274414 C98.81887505 227.06503037 98.83811129 220.81738913 98.84476548 214.56960505 C98.84865046 211.26646763 98.8592886 207.96358395 98.87969017 204.66050148 C98.90163702 200.95819702 98.90445968 197.25631468 98.90307617 193.55395508 C98.913862 192.47860504 98.92464783 191.403255 98.9357605 190.2953186 C98.87381621 174.86075286 94.46844456 161.03198213 84.17578125 149.390625 C80.34922313 146.24043187 76.95866387 149.40459487 73.375 151.5625 Z M-51.4375 154.0625 C-61.9019687 164.77246944 -64.76638555 178.99179994 -64.66455078 193.36547852 C-64.66484283 194.45919266 -64.66513489 195.5529068 -64.66543579 196.67976379 C-64.66405105 200.26706083 -64.64853015 203.85414584 -64.6328125 207.44140625 C-64.62907933 209.93960965 -64.62623379 212.43781451 -64.62423706 214.9360199 C-64.61740113 220.82189023 -64.601665 226.70768325 -64.58153808 232.59352201 C-64.55690399 239.95881897 -64.54622964 247.32412546 -64.53515625 254.68945312 C-64.51374841 267.81384014 -64.48002928 280.93816529 -64.4375 294.0625 C-60.87471911 293.92307319 -57.3123574 293.77482922 -53.75 293.625 C-52.74259766 293.58568359 -51.73519531 293.54636719 -50.69726562 293.50585938 C-49.23256836 293.44301758 -49.23256836 293.44301758 -47.73828125 293.37890625 C-46.84278564 293.34224854 -45.94729004 293.30559082 -45.0246582 293.26782227 C-42.42971912 293.06188249 -39.97695316 292.62482178 -37.4375 292.0625 C-37.32028574 277.03222214 -37.23232648 262.00197993 -37.17843914 246.97134113 C-37.1527443 239.9910732 -37.11776292 233.01109057 -37.06030273 226.03100586 C-37.00481863 219.28770964 -36.97603039 212.54470921 -36.96311378 205.80119896 C-36.95391545 203.23572327 -36.93595368 200.67026271 -36.90884972 198.10491371 C-36.46463626 174.90103315 -36.46463626 174.90103315 -47.88671875 155.35546875 C-49.35700729 153.84904177 -49.35700729 153.84904177 -51.4375 154.0625 Z M7.5625 163.0625 C6.74497697 164.64324564 5.93368003 166.22721223 5.125 167.8125 C4.67253906 168.69421875 4.22007812 169.5759375 3.75390625 170.484375 C1.941454 174.40640281 1.43762266 177.67682037 1.44224548 181.98529053 C1.44087082 182.97524521 1.43949615 183.96519989 1.43807983 184.9851532 C1.44167511 186.0648085 1.44527039 187.14446381 1.44897461 188.25683594 C1.44882858 189.3985878 1.44868256 190.54033966 1.4485321 191.71669006 C1.44922919 195.49343765 1.45701213 199.27013602 1.46484375 203.046875 C1.46670865 205.66432671 1.46813221 208.28177877 1.46913147 210.89923096 C1.47223846 217.08627572 1.48044333 223.2733028 1.49048096 229.46033978 C1.50166172 236.50503607 1.5071575 243.54973321 1.51217639 250.59443617 C1.52262647 265.08380012 1.54041532 279.57314922 1.5625 294.0625 C7.5025 294.3925 13.4425 294.7225 19.5625 295.0625 C19.6321772 280.92756162 19.68540119 266.79266446 19.71793652 252.65758896 C19.73355609 246.0932786 19.75472664 239.52908622 19.78881836 232.96484375 C19.82154396 226.62356668 19.83938087 220.28240271 19.84713173 213.94104767 C19.85265157 211.52828442 19.86343019 209.11552697 19.87969017 206.70281219 C19.9016397 203.30922834 19.90445959 199.91610496 19.90307617 196.52246094 C19.913862 195.53702301 19.92464783 194.55158508 19.9357605 193.5362854 C19.8889901 182.85241959 17.98087025 172.19566114 10.5625 164.0625 C9.5725 163.7325 8.5825 163.4025 7.5625 163.0625 Z M-114.4375 166.0625 C-122.02427465 173.82571127 -126.57051267 183.80461851 -126.55775452 194.76387024 C-126.55912918 195.6794722 -126.56050385 196.59507416 -126.56192017 197.53842163 C-126.55832489 198.53032501 -126.55472961 199.52222839 -126.55102539 200.54418945 C-126.55117142 201.59830521 -126.55131744 202.65242096 -126.5514679 203.73847961 C-126.55077205 207.2176012 -126.54299493 210.69666903 -126.53515625 214.17578125 C-126.53329091 216.59002147 -126.53186755 219.00426207 -126.53086853 221.41850281 C-126.52705251 227.76918586 -126.51723001 234.11984601 -126.50616455 240.47052002 C-126.49593078 246.95234874 -126.49136669 253.43418116 -126.48632812 259.91601562 C-126.47560694 272.63152018 -126.45873401 285.34700887 -126.4375 298.0625 C-123.39557987 297.9209453 -120.35403653 297.77440099 -117.3125 297.625 C-116.4565625 297.58568359 -115.600625 297.54636719 -114.71875 297.50585938 C-110.22028208 297.28093598 -105.86943793 296.92709117 -101.4375 296.0625 C-101.34368659 282.20563583 -101.27360751 268.34882154 -101.23025131 254.49170399 C-101.20943556 248.0562871 -101.18122781 241.62108457 -101.13574219 235.18579102 C-101.09207009 228.96769307 -101.06831774 222.74980046 -101.05799103 216.5315609 C-101.05063793 214.16705789 -101.03627966 211.80256527 -101.01457977 209.43815041 C-100.58169999 187.63943995 -100.58169999 187.63943995 -109.97265625 168.453125 C-111.50037654 166.8060841 -111.50037654 166.8060841 -114.4375 166.0625 Z M65.5625 174.0625 C64.74497697 175.64324564 63.93368003 177.22721223 63.125 178.8125 C62.67253906 179.69421875 62.22007812 180.5759375 61.75390625 181.484375 C59.99264365 185.29563178 59.43742322 188.49585074 59.44224548 192.68157959 C59.44087082 193.60422104 59.43949615 194.52686249 59.43807983 195.47746277 C59.44167511 196.48231216 59.44527039 197.48716156 59.44897461 198.52246094 C59.44882858 199.58618423 59.44868256 200.64990753 59.4485321 201.74586487 C59.44922894 205.26288897 59.45701067 208.77986015 59.46484375 212.296875 C59.46670874 214.73496471 59.46813226 217.1730548 59.46913147 219.61114502 C59.47295024 226.02924636 59.4827751 232.44732508 59.49383545 238.86541748 C59.5040633 245.41418146 59.50863204 251.96294909 59.51367188 258.51171875 C59.52439791 271.36198911 59.54146669 284.21224267 59.5625 297.0625 C64.8425 297.3925 70.1225 297.7225 75.5625 298.0625 C75.63213256 284.54494063 75.68537866 271.02742422 75.71793652 257.50972176 C75.73356577 251.232328 75.75475418 244.95505731 75.78881836 238.67773438 C75.82150923 232.61527172 75.83937361 226.55292717 75.84713173 220.49038315 C75.85265777 218.18202736 75.86344866 215.87367774 75.87969017 213.56537247 C75.90159343 210.32225018 75.9044615 207.07961061 75.90307617 203.83642578 C75.913862 202.89055099 75.92464783 201.94467621 75.9357605 200.97013855 C75.89759935 192.66764366 74.33617358 184.8054896 69.4375 177.9375 C68.66019531 176.81988281 68.66019531 176.81988281 67.8671875 175.6796875 C67.43664062 175.14601562 67.00609375 174.61234375 66.5625 174.0625 C66.2325 174.0625 65.9025 174.0625 65.5625 174.0625 Z M-30.31260681 306.39744568 C-32.00094383 306.50886902 -32.00094383 306.50886902 -33.72338867 306.62254333 C-34.93865234 306.70512894 -36.15391602 306.78771454 -37.40600586 306.87280273 C-38.70115616 306.95897858 -39.99630646 307.04515442 -41.33070374 307.13394165 C-44.8680524 307.36942126 -48.40519711 307.60784119 -51.94230342 307.84693027 C-55.65403242 308.09744806 -59.36591537 308.34566594 -63.07777405 308.59425354 C-69.31099646 309.01208272 -75.54408442 309.43187489 -81.77709961 309.8527832 C-88.96881939 310.33840247 -96.16075738 310.82068194 -103.35281843 311.30121845 C-109.54168335 311.71481406 -115.73042505 312.13021699 -121.9190684 312.54711491 C-125.60910384 312.79569334 -129.2991773 313.04366366 -132.98936272 313.29000664 C-137.10628977 313.56495823 -141.22295191 313.84369985 -145.33959961 314.12280273 C-146.55283905 314.20336411 -147.76607849 314.28392548 -149.01608276 314.3669281 C-150.1444606 314.44403015 -151.27283844 314.5211322 -152.43540955 314.60057068 C-153.89295355 314.69874163 -153.89295355 314.69874163 -155.37994289 314.79889584 C-159.07607267 315.11755389 -162.75630711 315.60235089 -166.4375 316.0625 C-166.4375 322.3325 -166.4375 328.6025 -166.4375 335.0625 C-136.53933049 334.34230915 -106.66976398 332.99953574 -76.79327393 331.67602539 C-70.74537428 331.408594 -64.69737313 331.14348819 -58.64937091 330.87838829 C-44.91194347 330.27617917 -31.17468659 329.67017715 -17.4375 329.0625 C-17.4375 321.4725 -17.4375 313.8825 -17.4375 306.0625 C-21.80073181 306.0625 -25.98359726 306.10743812 -30.31260681 306.39744568 Z " fill="#2C4166" transform="translate(190.4375,10.9375)"/>
</svg>
